WalkerModelTerrain_states
version=1
nRows=18
nColumns=13
inDegrees=yes

# SIMM Motion File Header:
name WalkerModelTerrain_states
datacolumns 13
datarows 18
otherdata 1
range 1.36862974 1.40317859
endheader
time	Pelvis_tx	Pelvis_ty	LHip_rz	RHip_rz	LKnee_rz	RKnee_rz	Pelvis_tx_u	Pelvis_ty_u	LHip_rz_u	RHip_rz_u	LKnee_rz_u	RKnee_rz_u
      1.36862974	      0.03958653	      0.37016520	    104.12195321	     49.99728716	   -113.89718740	   -140.16699897	      0.15810540	      0.00243285	     -3.12126366	      3.72872982	    -18.45653080	    -16.40728296
      1.37111593	      0.03996971	      0.37018109	    104.11328267	     50.01065387	   -113.94128233	   -140.20752808	      0.15058193	      0.00995146	     -3.81866413	      6.77454364	    -17.09401470	    -16.17590871
      1.37325637	      0.04028718	      0.37020739	    104.10462556	     50.02697610	   -113.97698601	   -140.24175325	      0.14643920	      0.01427039	     -4.24351420	      8.33158248	    -16.33442936	    -15.75365586
      1.37539681	      0.04059827	      0.37024063	    104.09522846	     50.04576026	   -114.01148458	   -140.27471856	      0.14462758	      0.01643124	     -4.51219145	      9.10189102	    -15.96220743	    -14.98618423
      1.37713947	      0.04085026	      0.37026966	    104.08725184	     50.06180672	   -114.03924323	   -140.30008047	      0.14481106	      0.01665937	     -4.62768260	      9.24909570	    -15.93472683	    -14.07874676
      1.37888212	      0.04110377	      0.37029798	    104.07914919	     50.07778864	   -114.06714597	   -140.32364461	      0.14634128	      0.01564845	     -4.65783809	      9.03852327	    -16.12264451	    -12.92601450
      1.38131717	      0.04146464	      0.37033261	    104.06788602	     50.09895296	   -114.10704303	   -140.35279743	      0.15039097	      0.01249209	     -4.56854300	      8.26161941	    -16.70419675	    -10.95459983
      1.38335607	      0.04177592	      0.37035430	    104.05874308	     50.11484060	   -114.14180124	   -140.37322080	      0.15512586	      0.00863903	     -4.38404017	      7.28102300	    -17.42080286	     -9.04600006
      1.38539497	      0.04209780	      0.37036732	    104.05006928	     50.12850073	   -114.17819651	   -140.38957238	      0.16072793	      0.00402654	     -4.11049022	      6.08995268	    -18.30476074	     -6.97122216
      1.38743387	      0.04243172	      0.37037041	    104.04203403	     50.13958244	   -114.21652032	   -140.40157711	      0.16688838	     -0.00105105	     -3.75981294	      4.76321480	    -19.30303848	     -4.79156840
      1.38947277	      0.04277855	      0.37036288	    104.03477847	     50.14787331	   -114.25696826	   -140.40907471	      0.17335785	     -0.00635255	     -3.34870133	      3.36087997	    -20.38475535	     -2.55720097
      1.39151167	      0.04313873	      0.37034447	    104.02840916	     50.15326500	   -114.29967363	   -140.41199152	      0.17996308	     -0.01171016	     -2.89296961	      1.92470368	    -21.51046190	     -0.30250343
      1.39355058	      0.04351242	      0.37031516	    104.02299932	     50.15571547	   -114.34470546	   -140.41030771	      0.18660354	     -0.01702140	     -2.41099198	      0.47916689	    -22.66552957	      1.95303929
      1.39558948	      0.04389962	      0.37027515	    104.01858110	     50.15522943	   -114.39209249	   -140.40403906	      0.19317553	     -0.02218838	     -1.92455564	     -0.94989459	    -23.81162622	      4.19071529
      1.39762838	      0.04429998	      0.37022489	    104.01513151	     50.15188578	   -114.44177491	   -140.39325384	      0.19948861	     -0.02704061	     -1.46732673	     -2.31312229	    -24.91077662	      6.37589943
      1.39966728	      0.04471271	      0.37016528	    104.01255274	     50.14589590	   -114.49358710	   -140.37811268	      0.20523516	     -0.03131558	     -1.07648090	     -3.52977601	    -25.88472820	      8.45249163
      1.40142294	      0.04507683	      0.37010758	    104.01089797	     50.13891959	   -114.53966146	   -140.36180560	      0.20942585	     -0.03427617	     -0.82355812	     -4.38043472	    -26.57420129	     10.09709554
      1.40317859	      0.04544748	      0.37004546	    104.00960353	     50.13066559	   -114.58677943	   -140.34276965	      0.21261716	     -0.03632217	     -0.66884805	     -4.97390910	    -27.06485921	     11.55192166
